<?xml version="1.0" encoding="UTF-8"?>
<svg version="1.1" viewBox="0 0 2048 871" width="350" height="149" xmlns="http://www.w3.org/2000/svg">
<path transform="translate(1302,204)" d="m0 0h5l5 8 9 24 4 4 3-10 9-24 4-2 15 7-1 6-11 25-9 23 1 9 6 17 12 27 12 28 8 19 13 30 19 45 17 39 14 34 12 30 16 36 12 28 5 12v5l-45 1h-20l-13-1 2-6 12-22 8-14 6-8-1-3-8-3-16-9-16-13-7-6-9-11-10-14-13-22-8-18 5 16 10 24 9 15 8 11 11 13 11 10 11 7 7 5-1 5-12 23-10 18-5-4-11-16-9-14-12-25-12-35-7-27-7-34-6-37-1-3-4 27-10 57-5 20-9 25-11 25-9 16-8 11-11 13-4 1-6-12-8-18-7-12v-5l18-11 11-9 10-10 10-14 8-16 5-11 10-30-8 17-13 22-8 12-10 13-16 16-14 10-12 5-6 2 13 25 10 19 4 7v3h-66l-13-1-1-2 7-16 8-20 15-34 18-41 10-24 16-36 8-19 22-52 17-41 15-35 11-27 4-9-1-7-7-14-8-20-5-12 1-5zm40 267 1 2zm67 52-3 4 2 2 1 5-7 2-1 2 3 4h8l2-3v-3l-5-1h3l1-4 4-2 1-4-2-2zm-174 1-3 4-1 6 5 6v-3l2-4 3-2-1 5-2 5 1 1h5l3-3-1-4-3-5-4-5z" fill="#DF8534"/>
<path transform="translate(752,383)" d="m0 0h21l19 5 10 6 5 4 7 9 4-1 8-7 10-6 11-5 18-4h18l17 4 9 4 9 6 7 7 8 13 5 11 3 11 2 19 1 64-1 89-4 5-7 3h-42l-5-2-3-5-1-8v-141l-2-10-5-8-7-5-9-2-11 1-8 4-6 8-3 9-1 13-1 137-3 6-2 2-20 1h-14l-19-1-3-7-2-148-3-9-6-9-8-5-4-1h-12l-10 5-6 10-2 10v141l-2 8-6 5-18 1h-28l-5-2-3-6-1-8-1-72v-134l2-6 4-4 2-1h50l3 2 2 13 6-4 7-6 10-5z" fill="#516E37"/>
<path transform="translate(1085,383)" d="m0 0h21l18 4 16 8 8 7 8 11 6 12 3 10 2 26v98l-4 18-8 16-8 11-8 8-12 6-19 5-6 1h-12l-17-4-12-6-11-8 1 2v82l-1 15-4 4-5 1h-40l-9-1-3-3-1-6-1-40v-143l1-120 2-6 2-2 5-1h50l2 2v10l6-3 9-7 13-5zm-14 56-10 5-6 9-3 7-1 5v79l3 11 7 8 12 5h10l12-5 7-8 3-9v-86l-4-9-7-8-10-4z" fill="#526E37"/>
<path transform="translate(284,297)" d="m0 0h22l20 3 16 5 16 8 13 10 9 10 9 15 6 16 3 15 1 8v15l-3 5-7 2h-21l-25-1-5-2-3-3-2-10-1-13-6-12-7-6-10-4-10-2h-8l-8 2-7 4-5 4-7 11-2 6-1 7v113l1 33 2 9 5 9 2 4 4 2 11 4 6 1h10l10-2 12-6 4-5 3-7 3-23 4-6 6-2h48l5 4 3 9-1 13-5 23-5 13-8 12-9 10-10 9-14 8-15 5-14 3-8 1h-26l-18-3-18-6-13-7-13-11-10-12-8-14-5-13-3-16v-158l3-19 5-14 7-13 8-11 9-9 10-7 14-7 18-5z" fill="#516E37"/>
<path transform="translate(505,383)" d="m0 0h31l18 4 13 5 12 7 10 9 7 10 8 16 4 16 1 8 1 25v67l1 63-4 5-13 2h-36l-7-1-2-4-2-9-13 10-10 4-12 3-9 1h-14l-14-2-14-5-10-6-7-6-7-11-6-16-3-17v-14l3-17 6-16 7-11 10-9 14-8 11-4 21-3 44-1 3-1v-11l-2-11-4-8-8-6-10-3h-9l-10 5-6 7-4 6h-33l-22-1-4-4-1-8 5-16 6-12 11-12 9-7 12-6 12-4zm17 138-12 2-9 4-6 7-3 8-1 10 2 9 6 9 5 3 4 1h14l10-4 8-6 5-8 2-7v-25l-3-3z" fill="#516E37"/>
<path transform="translate(1799,383)" d="m0 0h32l16 3 14 5 13 8 11 9 9 12 6 13 5 18 2 20v41l-1 8-3 3-4 1-31 1h-79v14l3 12 6 9 8 5 8 2h7l12-4 9-7 8-10 12 3 36 10 6 3 1 1-1 8-8 17-8 10-10 9-12 7-14 5-15 3-9 1h-25l-16-3-16-5-13-7-10-9-6-7-8-14-4-11-4-18-1-8v-56l1-21 4-25 5-14 8-12 11-12 11-7 13-6 15-4zm12 56-10 5-7 10-4 11-2 10v6l4 1h53l1-1v-11l-3-14-4-8-7-6-10-3z" fill="#DF8534"/>
<path transform="translate(1596,323)" d="m0 0h18l28 1 10 2 2 7v53l30 1 6 1 1 3v43l-4 3-6 1h-26v97l1 17 3 8 5 4 2 1 23 2 2 2 1 16v28l-3 5-7 4h-29l-19-3-15-5-8-5-7-7-8-16-3-14-1-25-1-76v-33h-17l-5-2-3-6v-27l1-14 1-1 20-2 2-1 1-38v-11l1-9z" fill="#DF8534"/>
<path transform="translate(1482,387)" d="m0 0h42l8 4 2 5 1 153v65l-5 5-8 2-17 1-5-5-11-25-16-40-2-6-1-12 1-13v-70l1-58 4-4z" fill="#DF8534"/>
<path transform="translate(898,165)" d="m0 0 4 4 14 29 13 23 5 8v1l-10 1 6 11 11 19 7 11 5 6v3l-14 1 1 4 8 16 7 11 12 14 4 5-3 2-7 1h-38l-8-2-6-2 1 31h-20l-2-1 1-27-26 2h-14l-16-1 1-4 13-18 8-14 7-13 1-4h-12l-1-3 6-11 12-23 7-13h-10l-1-2 13-21 8-16 11-26z" fill="#516E37"/>
<path transform="translate(1484,297)" d="m0 0h36l8 3 5 5 2 7 1 25-1 9-4 6-6 4-5 1-23 1-13-1-8-5-4-8-1-6v-25l3-10 6-5z" fill="#DF8534"/>
<path transform="translate(1062,266)" d="m0 0 4 2 8 14 7 10 2 3-5 3 1 6 4 5 5 8-2 4-3 3 10 18 2 3v3h-22l-4-1v15l-2 3h-5l-3-7v-10h-26l-1-2 10-15 5-7 1-3-7-2 2-5 7-10 2-6-3-4 1-5 8-14 3-8z" fill="#546E37"/>
<path transform="translate(792,266)" d="m0 0 3 3 7 16 7 10-2 4-1 3 6 11 3 4v3l-5 2 6 12 5 8v3l-10 2h-13l1 9-4 5h-6l-2-1-1-10v-3l-2-1h-20l1-4 6-9 7-11-7-1-1-3 7-11 4-8-5-2 1-5 6-9 5-10 2-6z" fill="#536E37"/>
<path transform="translate(994,278)" d="m0 0 4 4 4 10 5 7 2 15 7 8v3l-5 2 3 6 7 10 2 5h-22v9l-2 3-4-1-2-2v-8l-24-2 2-4 6-8 2-9-1-7 6-10-2-8 6-9 4-12z" fill="#546E37"/>
</svg>
